<svg viewBox="0 0 318.77 45.6"><path d="M5.7 45.6H0V0h5.7l7 26.76V0h5.7v45.6h-5.7l-7-26.76ZM28.08 45.6h-5.7V0h5.7ZM34.86 45.6 32 42.78v-40L34.86 0h11.46l2.82 2.82v8.52h-5.7v-5l-.66-.66H38.4l-.66.66v32.84l.66.66h4.38l.66-.66v-5h5.7v8.58l-2.82 2.84ZM66.9 0l2.82 2.82v40L66.9 45.6H55.44l-2.82-2.82v-40L55.44 0ZM64 6.42l-.66-.66H59l-.66.66v32.82l.66.66h4.3l.66-.66ZM90.06 39.9v5.7H73.68V0h5.76v39.9ZM112.74 45.6h-5.64l-2-11.4h-6.28L96.9 45.6h-5.64L99.12 0h5.64Zm-13-17.16h4.32l-2.16-12.78ZM132.12 11.4h-5.76v-5l-.66-.66h-4.38l-.66.66v12.9l.66.66h7.92l2.88 2.82v20l-2.88 2.82h-11.4L115 42.78v-8.52h5.7v5l.66.66h4.38l.66-.66V26.34l-.66-.66h-7.86L115 22.8v-20l2.84-2.8h11.4l2.88 2.82ZM148.92 0h14.27L166 2.82v17.1l-2.88 2.82 2.88 2.88v17.16l-2.82 2.82h-14.26Zm5.75 19.92h5l.66-.66V6.3l-.66-.66h-5Zm5.64 6.36-.66-.66h-5v14.22h5l.66-.66ZM186.17 45.6h-16.38V0h16.38v5.64h-10.68v14.28h5.7v5.7h-5.7v14.22h10.68ZM195.17 45.6h-5.7V0h14.28l2.82 2.82v20l-2.82 2.88 2.82 19.92h-5.7L198 25.68h-2.82Zm0-25.62h5l.66-.66V6.42l-.66-.66h-5ZM227.09 0v5.76h-6.36V45.6H215V5.76h-6.3V0ZM243.83 0l2.82 2.82v40l-2.82 2.82h-11.46l-2.82-2.82v-40L232.37 0Zm-2.94 6.42-.66-.66h-4.32l-.66.66v32.82l.66.66h4.32l.66-.66ZM267 39.9v5.7h-16.39V0h5.76v39.9ZM275.33 45.6h-5.7V0h5.7ZM285 45.6h-5.7V0h5.7l7 26.76V0h5.7v45.6H292l-7-26.76ZM316 0l2.82 2.82v40L316 45.6h-11.51l-2.82-2.82v-40L304.49 0Zm-3 6.42-.66-.66H308l-.66.66v32.82l.66.66h4.32l.66-.66Z"/></svg>